<svg width="22" height="16" viewBox="0 0 22 16" fill="none" xmlns="http://www.w3.org/2000/svg">
<path d="M18.299 6.94622C15.9623 7.57139 13.3751 7.88504 10.8109 7.74938C3.01871 7.32853 1.66296 8.10726 0.442887 7.05827C-0.287066 6.46778 0.649883 5.22975 3.54949 4.98741C6.46335 4.7449 16.8457 4.70237 17.7559 4.8268C19.988 5.17579 20.3781 6.36888 18.299 6.94622Z" fill="black"/>
<path d="M13.4439 10.488C19.2998 6.06975 19.8573 6.69202 18.9979 5.86373C18.1927 5.10467 17.331 4.38823 16.3685 3.82678C15.2005 3.11406 14.249 2.03527 12.964 1.58955C11.9402 1.29443 12.5812 -0.0552639 13.6073 0.127999C14.4255 0.271846 19.9265 3.42022 21.0806 4.7901C23.8519 8.0135 17.5119 10.3129 11.8039 14.981C10.9683 15.6621 9.88887 15.3676 9.96437 14.4302C10.0508 12.9754 12.2994 11.2987 13.4445 10.46L13.4439 10.488Z" fill="black"/>
</svg>
