<svg width="89" height="86" viewBox="0 0 89 86" fill="none" xmlns="http://www.w3.org/2000/svg">
<path d="M63.3123 26.1569C66.4317 26.1569 68.9716 23.7927 68.9716 20.8661C68.9716 17.9395 66.444 15.5753 63.3123 15.5753C60.1806 15.5753 57.653 17.9395 57.653 20.8661C57.653 23.7927 60.1806 26.1569 63.3123 26.1569Z" fill="#77E7AC"/>
<path d="M82.2999 10.2138C82.2999 10.2138 82.004 9.85798 81.8314 9.6973C80.6355 8.41191 79.3408 7.25275 78.0216 6.12803C70.4759 0.401129 59.5889 -0.838359 49.9841 0.481468C48.4799 0.676573 47.025 0.917582 45.6071 1.28484C32.92 4.1655 20.9603 12.3829 21.9467 25.6041C22.2426 29.9767 23.8701 33.9362 26.4469 37.2186C26.3606 37.2186 26.2743 37.2989 26.2373 37.3333C19.4684 41.224 12.6871 45.1031 5.9182 48.9478C4.46331 49.7856 3.00842 50.6349 1.59052 51.4268C1.07267 51.7481 0.517842 52.0236 0 52.3449L1.24529 55.5125C10.0733 75.8264 33.783 90.6888 58.7258 84.1585C62.6713 83.1141 66.6167 81.5992 70.5622 79.476C72.9665 75.4706 75.1858 71.339 77.2078 67.0926C79.0449 63.202 80.6848 59.3228 82.1766 55.3174C84.7042 48.6265 87.2811 40.4091 87.9222 32.3524C88.5634 24.3416 87.3674 16.4456 82.4356 10.1908H82.3123L82.2999 10.2138ZM78.1819 33.2476C77.664 40.5354 75.7776 47.7887 73.25 54.6862C70.6362 61.8936 67.3812 69.0666 63.522 75.8379C43.3385 83.8486 17.1011 76.756 7.75531 54.6403C7.5457 54.0779 7.28678 53.4811 7.06485 52.9532C6.97854 52.7122 17.434 46.9394 18.4697 46.4229C22.3659 44.4948 26.3113 42.4979 30.1705 40.4894C29.9979 40.5698 34.6338 44.1391 35.1023 44.4145C37.112 45.5392 39.3437 46.3426 41.6123 46.8131C43.881 47.2952 46.1126 47.3755 48.3443 47.0886C49.2074 47.0082 50.7485 47.0886 50.8349 46.1245C50.8718 45.3212 49.5896 44.162 49.5526 43.1635C49.4663 41.9585 49.8115 40.7649 50.1074 39.5598C51.2664 34.9462 51.8705 30.2292 51.8212 25.5352C51.8212 23.4465 51.5623 21.0822 49.8115 19.728C48.221 18.4885 45.9523 18.5229 43.8563 18.6492C39.8739 18.8443 35.6202 19.487 31.6377 19.246C31.0829 17.3982 32.9693 14.6782 34.1283 13.2781C37.0011 9.83503 41.4644 7.66592 45.7427 6.5412C55.779 3.93597 68.0346 5.97883 74.1994 14.4716C78.0586 19.7968 78.5764 26.9698 78.1449 33.2247H78.1819V33.2476Z" fill="#77E7AC"/>
</svg>
