<svg width="169" height="55" viewBox="0 0 169 55" fill="none" xmlns="http://www.w3.org/2000/svg">
<g clip-path="url(#clip0_40_28)">
<path d="M15.8867 38.3374C16.6695 38.3374 17.3068 37.696 17.3068 36.9021C17.3068 36.1081 16.6726 35.4667 15.8867 35.4667C15.1009 35.4667 14.4667 36.1081 14.4667 36.9021C14.4667 37.696 15.1009 38.3374 15.8867 38.3374Z" fill="white"/>
<path d="M20.6511 34.0127C20.6511 34.0127 20.5769 33.9162 20.5336 33.8726C20.2335 33.5238 19.9086 33.2094 19.5776 32.9042C17.6842 31.3506 14.9524 31.0143 12.5423 31.3724C12.1648 31.4253 11.7998 31.4907 11.444 31.5903C8.26046 32.3718 5.25947 34.6011 5.50697 38.188C5.58122 39.3743 5.98961 40.4484 6.63621 41.3389C6.61455 41.3389 6.5929 41.3607 6.58362 41.3701C4.88512 42.4256 3.18352 43.4779 1.48503 44.521C1.11996 44.7483 0.754888 44.9787 0.399101 45.1935C0.269161 45.2807 0.12994 45.3554 0 45.4426L0.312474 46.302C2.52764 51.813 8.47702 55.8451 14.7358 54.0734C15.7258 53.7901 16.7158 53.3791 17.7058 52.8031C18.3091 51.7165 18.866 50.5956 19.3734 49.4436C19.8344 48.388 20.2459 47.3357 20.6202 46.249C21.2544 44.4338 21.901 42.2045 22.0619 40.0188C22.2228 37.8455 21.9227 35.7033 20.6852 34.0065H20.6542L20.6511 34.0127ZM19.6178 40.2616C19.4879 42.2387 19.0145 44.2065 18.3803 46.0778C17.7244 48.0331 16.9076 49.9791 15.9393 51.8161C10.8747 53.9894 4.29111 52.0652 1.946 46.0653C1.89341 45.9128 1.82844 45.7509 1.77275 45.6076C1.75109 45.5422 4.37464 43.9761 4.63452 43.836C5.61216 43.3129 6.60218 42.7712 7.57054 42.2263C7.52723 42.2481 8.6905 43.2164 8.80806 43.2911C9.31235 43.5963 9.87233 43.8142 10.4416 43.9419C11.0108 44.0726 11.5708 44.0944 12.1308 44.0166C12.3474 43.9948 12.7341 44.0166 12.7558 43.7551C12.765 43.5371 12.4433 43.2226 12.434 42.9517C12.4123 42.6248 12.499 42.301 12.5732 41.9741C12.864 40.7224 13.0156 39.4427 13.0033 38.1693C13.0033 37.6026 12.9383 36.9612 12.499 36.5938C12.0999 36.2576 11.5306 36.2669 11.0047 36.3012C10.0054 36.3541 8.938 36.5284 7.9387 36.4631C7.79948 35.9618 8.27283 35.2239 8.56365 34.844C9.28451 33.9099 10.4045 33.3215 11.478 33.0163C13.9964 32.3096 17.0716 32.8638 18.6185 35.1678C19.5869 36.6125 19.7168 38.5585 19.6085 40.2554H19.6178V40.2616Z" fill="white"/>
<path d="M23.2376 7.95518C20.6047 7.95518 18.5319 9.20373 17.2541 11.4393C16.3879 9.01691 14.8069 7.95518 12.171 7.95518C9.80117 7.95518 7.57982 9.35629 6.75068 11.0625H6.6393L6.67643 8.29456H1.85938V26.6304H6.67643V17.1589C6.67643 14.282 7.76854 11.9312 10.2529 11.9312C12.5485 11.9312 13.1889 13.8274 13.1889 16.3276V26.6304H18.0059V17.1589C18.0059 14.0142 19.2496 11.9312 21.6566 11.9312C24.0636 11.9312 24.5184 14.1294 24.5184 16.3649V26.6304H29.3355V15.5679C29.3355 11.3645 28.0175 7.95518 23.2376 7.95518Z" fill="white"/>
<path d="M46.9516 10.0755C45.5965 8.78962 43.7526 7.95518 40.5165 7.95518C37.2804 7.95518 34.7929 9.05427 33.4007 9.8856L34.8703 12.9929C35.6592 12.3858 37.6547 11.4766 40.0648 11.4766C42.4749 11.4766 44.13 12.5757 44.13 14.9234V15.4184L39.7616 15.7204C35.9995 15.9851 32.2715 17.464 32.2715 21.2875C32.2715 25.111 35.1333 27.0445 38.6695 27.0445C41.3796 27.0445 43.4896 25.8333 44.2414 24.5069L44.3157 26.6304H48.9471V16.1377C48.9471 13.0303 48.2695 11.3645 46.9516 10.0755ZM44.1672 21.7421C43.5267 22.6513 42.1345 23.7503 40.2504 23.7503C38.258 23.7503 37.0916 22.6886 37.0916 21.1381C37.0916 19.5875 38.3322 18.7126 40.8908 18.56L44.1672 18.3732V21.7421Z" fill="white"/>
<path d="M62.3834 7.95518C60.4281 7.95518 58.6214 9.28156 57.9036 11.2493H57.7922L57.8665 8.29456H53.0865V26.6304H57.8665V17.6135C57.8665 16.2124 58.0923 14.9638 58.544 14.0547C59.2216 12.8777 60.3137 12.2737 61.743 12.2737C62.3834 12.2737 63.2126 12.3484 63.7385 12.501H63.9644L64.3047 8.29456C64.3047 8.29456 63.6271 7.95518 62.3834 7.95518Z" fill="white"/>
<path d="M76.8007 15.2285L83.539 8.29456H78.23L71.6433 15.4558V0.491943H66.8634V22.7758C67.2749 22.6948 67.6987 22.6544 68.1288 22.6544C69.3508 22.6544 70.3842 22.9719 71.1978 23.6009C71.3587 23.7254 71.5103 23.8593 71.6433 24.0057V20.3036L73.5646 18.258L78.8705 26.6304H84.4424L76.8007 15.2285Z" fill="white"/>
<path d="M103.448 16.5549C103.448 11.6666 100.063 7.95518 94.454 7.95518C89.2595 7.95518 85.0055 11.8939 85.0055 17.7661C85.0055 23.6383 89.0707 27.0445 94.5653 27.0445C99.008 27.0445 101.755 25.1515 102.77 24.0928L100.889 21.4774C100.023 22.234 97.8417 23.3331 95.3945 23.3331C92.6472 23.3331 90.4258 21.932 89.9741 19.0146H103.373C103.373 19.0146 103.448 17.5014 103.448 16.5549ZM89.8999 15.873C90.0484 13.5627 91.5551 11.5545 94.4168 11.5545C97.8046 11.5545 98.5563 13.8647 98.6306 15.873H89.8999Z" fill="white"/>
<path d="M116.472 12.0838V8.33504H112.259V3.10735H107.479V8.33504H104.769V12.0838H107.479V20.5683C107.479 25.3414 109.019 27.0445 112.747 27.0445C114.78 27.0445 116.209 26.5152 116.435 26.4405L116.172 22.6886C116.172 22.6886 115.421 22.9937 114.44 22.9937C112.747 22.9937 112.259 22.3119 112.259 19.5065V12.0838H116.472Z" fill="white"/>
<path d="M119.371 8.29456V26.6304H124.188V8.29456H119.371ZM121.781 0C120.086 0 118.882 1.13645 118.882 2.69013C118.882 4.2438 120.086 5.38026 121.781 5.38026C123.477 5.38026 124.68 4.28116 124.68 2.69013C124.68 1.09909 123.474 0 121.781 0Z" fill="white"/>
<path d="M139.131 7.95518C136.499 7.95518 134.655 9.129 133.674 11.0625H133.563L133.6 8.29456H128.783V26.6304H133.6V17.5014C133.6 14.4314 134.615 11.9312 137.591 11.9312C140.375 11.9312 140.864 14.092 140.864 16.8195V26.6304H145.681V15.7578C145.681 11.3645 144.363 7.95518 139.131 7.95518Z" fill="white"/>
<path d="M163.675 8.29456L163.712 10.8352H163.637C162.357 8.86434 160.287 7.95518 157.84 7.95518C152.419 7.95518 148.883 12.1585 148.883 17.2367C148.883 23.0685 152.797 26.0233 157.388 26.0233C160.172 26.0233 162.357 25.0394 163.597 23.1432H163.675V24.0524C163.675 26.098 163.108 27.6143 162.431 28.4083C161.753 29.2053 160.398 30.0398 157.802 30.0398C155.47 30.0398 152.494 28.7134 151.327 27.8789L149.335 31.2509C150.238 31.8955 153.474 33.9784 157.802 33.9784C162.131 33.9784 164.501 32.4248 166.082 30.759C167.625 29.1306 168.454 26.8577 168.454 22.8412V8.29456H163.675ZM158.743 22.234C155.581 22.234 153.774 19.9238 153.774 17.1215C153.774 14.1294 155.655 11.7818 158.817 11.7818C161.979 11.7818 163.938 14.4688 163.938 17.1215C163.938 19.9238 162.205 22.234 158.743 22.234Z" fill="white"/>
<path d="M38.394 34.212C37.9671 33.8072 37.4349 33.5052 36.7945 33.3028C36.1541 33.1004 35.4951 32.9977 34.8176 32.9977C33.2861 32.9977 32.0269 33.4803 31.0338 34.4392C30.0438 35.3982 29.5488 36.6717 29.5488 38.2658C29.5488 39.1221 29.7561 39.9503 30.1676 40.7442C30.5821 41.5413 31.2164 42.4941 32.0703 43.6056C32.7231 44.4151 33.2366 45.1032 33.6141 45.6699C33.9884 46.2397 34.2669 46.769 34.4401 47.2609C34.6165 47.7529 34.7062 48.2915 34.7062 48.8707C34.7062 49.8826 34.4154 50.6454 33.8399 51.1623C33.2614 51.6791 32.5715 51.9406 31.7671 51.9406C30.8389 51.9406 30.0562 51.6044 29.4158 50.935C28.7754 50.2655 28.4319 49.2132 28.3824 47.7716L28.3051 45.9532C28.3051 45.6014 28.169 45.4239 27.8905 45.4239C27.6399 45.4239 27.4914 45.589 27.4388 45.9159L26.6128 50.8789C26.588 51.1809 26.6623 51.4082 26.8386 51.5608C27.3151 51.9406 28.0112 52.2551 28.927 52.5073C29.8427 52.7595 30.7152 52.8872 31.5443 52.8872C32.4725 52.8872 33.3233 52.6474 34.1029 52.1679C34.8794 51.6884 35.5013 51.0315 35.9654 50.197C36.4294 49.3626 36.6615 48.4161 36.6615 47.3543C36.6615 46.523 36.4789 45.701 36.117 44.8946C35.7519 44.0851 35.0558 42.9985 34.0255 41.6347C33.249 40.5761 32.6333 39.6981 32.1816 39.0037C31.7299 38.3094 31.5041 37.5435 31.5041 36.7122C31.5041 35.9275 31.7547 35.2581 32.259 34.7039C32.7602 34.1497 33.413 33.8695 34.2143 33.8695C35.1177 33.8695 35.7148 34.1995 36.0025 34.8534C36.2902 35.5134 36.4851 36.597 36.5872 38.1133L36.6986 39.9316C36.7481 40.2834 36.8873 40.4609 37.1132 40.4609C37.339 40.4609 37.4906 40.2959 37.5649 39.969L38.6198 34.8938C38.6941 34.6167 38.6198 34.3863 38.394 34.212Z" fill="white"/>
<path d="M55.5182 45.726C55.4687 45.5765 55.3573 45.4987 55.181 45.4987C54.9304 45.4987 54.7664 45.6388 54.6922 45.9159C54.2157 47.5567 53.7455 48.771 53.2814 49.5525C52.8142 50.3372 52.2945 50.7264 51.719 50.7264C50.8404 50.7264 50.5898 49.9075 50.9641 48.2635L54.3147 33.7574C54.389 33.4024 54.2652 33.225 53.9373 33.225C53.7888 33.225 53.6248 33.2841 53.4485 33.3962C53.2721 33.5114 53.0463 33.7698 52.7709 34.1746C52.6224 34.3988 52.4708 34.514 52.3192 34.514C52.1676 34.514 52.0191 34.3988 51.8675 34.1746C51.5922 33.7698 51.2395 33.4709 50.8156 33.2841C50.3887 33.0942 49.937 32.9977 49.4605 32.9977C48.4798 32.9977 47.496 33.2966 46.506 33.8881C45.5129 34.4828 44.5723 35.283 43.6813 36.2949C42.7903 37.3037 41.9921 38.4651 41.2929 39.779C40.5875 41.093 40.0368 42.4754 39.6346 43.9263C39.2324 45.3803 39.0344 46.825 39.0344 48.2635C39.0344 49.7798 39.285 50.9287 39.7862 51.7134C40.2874 52.4949 40.9897 52.8872 41.8931 52.8872C42.846 52.8872 43.8577 52.3828 44.925 51.3709C45.9893 50.3621 47.2144 48.5811 48.5943 46.0311C48.6593 45.9003 48.7366 45.8349 48.8294 45.8349C48.8449 45.8349 48.8603 45.838 48.8758 45.8412C48.9903 45.8661 49.0212 45.9657 48.9686 46.1432L48.4798 48.2262C48.155 49.6677 48.1983 50.8042 48.6128 51.6355C49.0274 52.47 49.7235 52.8872 50.7012 52.8872C51.8304 52.8872 52.7957 52.3734 53.6001 51.3522C54.4014 50.3309 55.0418 48.6309 55.5182 46.2584C55.5708 46.056 55.5708 45.8785 55.5182 45.726ZM50.4196 39.3992C50.0546 40.6384 49.5719 41.9274 48.9686 43.2631C48.3684 44.602 47.7095 45.8536 46.9948 47.015C46.2801 48.1763 45.5562 49.1229 44.8291 49.8545C44.1021 50.5894 43.4369 50.9536 42.8336 50.9536C42.4314 50.9536 42.1251 50.798 41.9117 50.4804C41.6982 50.1659 41.593 49.565 41.593 48.6807C41.593 47.3699 41.757 46.0249 42.0818 44.6487C42.4067 43.2725 42.8398 41.9461 43.3812 40.6695C43.9195 39.3961 44.5228 38.2534 45.188 37.2415C45.8532 36.2327 46.5493 35.4294 47.2763 34.8347C48.0034 34.2431 48.6933 33.9473 49.3461 33.9473C50.4258 33.9473 50.9641 34.7164 50.9641 36.2576C50.9641 37.1138 50.7816 38.1631 50.4196 39.3992Z" fill="white"/>
<path d="M71.0646 26.5588C71.0646 26.5837 71.0646 26.6055 71.0615 26.6304C71.0522 27.1535 70.9068 27.58 70.6314 27.9039C70.3437 28.2432 69.9848 28.4145 69.561 28.4145C69.0319 28.4145 68.6885 28.265 68.5246 27.9599C68.3606 27.6579 68.2616 27.3029 68.2245 26.9013C68.2152 26.8079 68.2028 26.7176 68.1904 26.6304C68.144 26.3377 68.076 26.0731 67.98 25.8396C67.8532 25.5375 67.5655 25.385 67.1138 25.385C67.0303 25.385 66.9436 25.3912 66.8632 25.4037C66.3867 25.4753 65.9629 25.7524 65.5885 26.2381C65.1492 26.8048 64.7532 27.8727 64.4036 29.4388L63.6487 32.733C63.5745 33.063 63.7106 33.225 64.0633 33.225H67.0767C67.5531 33.225 67.7387 33.4024 67.6397 33.7574C67.5655 34.1092 67.3396 34.2867 66.9622 34.2867H63.6889C63.4353 34.2867 63.2744 34.4143 63.197 34.6665L59.172 52.1275C59.0946 52.4077 58.9183 52.5447 58.643 52.5447H57.062C56.7372 52.5447 56.6103 52.3828 56.6877 52.0527L60.4869 35.6878C60.7127 34.7537 60.4126 34.2867 59.5835 34.2867H58.7945C58.3923 34.2867 58.1913 34.1092 58.1913 33.7574C58.1913 33.4055 58.4171 33.225 58.8688 33.225C59.6484 33.225 60.2301 33.1253 60.6199 32.9229C61.0097 32.7206 61.2665 32.3158 61.3902 31.7118C61.7182 30.2702 62.2008 28.9905 62.8412 27.8665C63.4817 26.7425 64.252 25.852 65.1554 25.195C65.6937 24.8027 66.263 24.5287 66.8632 24.3699C67.2716 24.2641 67.6923 24.2112 68.1286 24.2112C69.0072 24.2112 69.7157 24.4198 70.2571 24.837C70.7954 25.2511 71.0646 25.8271 71.0646 26.5588Z" fill="white"/>
<path d="M82.0568 45.726C82.0042 45.5765 81.8929 45.4987 81.7165 45.4987C81.4659 45.4987 81.3019 45.6388 81.2277 45.9159C80.7512 47.5567 80.281 48.771 79.8169 49.5525C79.3528 50.3372 78.83 50.7264 78.2545 50.7264C77.3759 50.7264 77.1253 49.9075 77.5027 48.2635L80.8502 33.7574C80.9276 33.4024 80.8007 33.225 80.4759 33.225C80.3243 33.225 80.1603 33.2841 79.9871 33.3962C79.8107 33.5114 79.5849 33.7698 79.3095 34.1746C79.1579 34.3988 79.0063 34.514 78.8578 34.514C78.7093 34.514 78.5546 34.3988 78.4061 34.1746C78.1277 33.7698 77.7781 33.4709 77.3512 33.2841C76.9242 33.0942 76.4725 32.9977 75.9961 32.9977C75.0184 32.9977 74.0315 33.2966 73.0415 33.8881C72.0484 34.4828 71.1079 35.283 70.2168 36.2949C69.3258 37.3037 68.5307 38.4651 67.8284 39.779C67.1261 41.093 66.5723 42.4754 66.1732 43.9263C65.771 45.3803 65.5699 46.825 65.5699 48.2635C65.5699 49.7798 65.8205 50.9287 66.3217 51.7134C66.8229 52.4949 67.5283 52.8872 68.4286 52.8872C69.3846 52.8872 70.3932 52.3828 71.4605 51.3709C72.5279 50.3621 73.75 48.5811 75.1298 46.0311C75.1948 45.9003 75.2721 45.8349 75.3649 45.8349C75.3804 45.8349 75.3959 45.838 75.4113 45.8412C75.5258 45.8661 75.5567 45.9657 75.5072 46.1432L75.0184 48.2262C74.6905 49.6677 74.7338 50.8042 75.1484 51.6355C75.5629 52.47 76.259 52.8872 77.2367 52.8872C78.3659 52.8872 79.3343 52.3734 80.1356 51.3522C80.94 50.3309 81.5804 48.6309 82.0568 46.2584C82.1063 46.056 82.1063 45.8785 82.0568 45.726ZM76.9551 39.3992C76.5901 40.6384 76.1074 41.9274 75.5072 43.2631C74.904 44.602 74.245 45.8536 73.5303 47.015C72.8156 48.1763 72.0948 49.1229 71.3677 49.8545C70.6376 50.5894 69.9724 50.9536 69.3722 50.9536C68.97 50.9536 68.6607 50.798 68.4503 50.4804C68.2368 50.1659 68.1285 49.565 68.1285 48.6807C68.1285 47.3699 68.2925 46.0249 68.6173 44.6487C68.9453 43.2725 69.3784 41.9461 69.9167 40.6695C70.4551 39.3961 71.0584 38.2534 71.7235 37.2415C72.3887 36.2327 73.0848 35.4294 73.8118 34.8347C74.542 34.2431 75.2288 33.9473 75.8816 33.9473C76.9613 33.9473 77.5027 34.7164 77.5027 36.2576C77.5027 37.1138 77.3202 38.1631 76.9551 39.3992Z" fill="white"/>
<path d="M99.3142 35.6878C98.8934 36.3603 98.4882 37.2103 98.0952 38.2378C98.3891 38.0572 98.6552 37.8206 98.8842 37.531C99.3915 36.8959 99.6576 36.0957 99.6731 35.146C99.5524 35.3142 99.4349 35.4947 99.3142 35.6878ZM97.6219 33.5488C97.2816 33.1814 96.7742 32.9977 96.0966 32.9977C95.0911 32.9977 94.2001 33.4273 93.4236 34.2867C92.647 35.146 91.7808 36.6717 90.8279 38.8699C90.7629 39.0006 90.6887 39.066 90.6051 39.066C90.5928 39.066 90.5773 39.0629 90.5618 39.0598C90.4628 39.0349 90.4257 38.9321 90.4504 38.7578L90.865 36.9768C91.1899 35.5632 91.1775 34.5451 90.8279 33.9255C90.4752 33.309 89.8843 32.9977 89.0582 32.9977C88.5292 32.9977 87.9537 33.2 87.3257 33.6048C86.6977 34.0096 86.0789 34.7039 85.4632 35.6878C84.8476 36.6717 84.2628 38.0354 83.7121 39.779C83.5358 40.2336 83.6379 40.4609 84.0122 40.4609C84.2628 40.4609 84.4392 40.2959 84.5413 39.969C85.2188 38.1008 85.8252 36.8305 86.3666 36.1611C86.9049 35.4916 87.4 35.1585 87.8516 35.1585C88.2291 35.1585 88.4611 35.3173 88.5478 35.6317C88.6375 35.9462 88.6189 36.3821 88.4921 36.9394L84.9156 52.0527C84.8414 52.3828 84.9806 52.5447 85.3302 52.5447H86.874C87.1494 52.5447 87.3257 52.4077 87.4 52.1275C87.8764 50.0071 88.4364 47.9366 89.0768 45.9159C89.7172 43.8952 90.3793 42.0706 91.0723 40.4422C91.7622 38.8138 92.4057 37.5186 93.009 36.5596C93.6123 35.6006 94.1011 35.1211 94.4786 35.1211C94.7044 35.1211 94.8653 35.2208 94.9674 35.4231C95.0664 35.6255 95.1623 35.859 95.2489 36.1237C95.3356 36.3883 95.4686 36.6219 95.6449 36.8242C95.8213 37.0266 96.109 37.1263 96.5112 37.1263C96.6442 37.1263 96.7711 37.1107 96.8887 37.0827L98.1076 34.6977C98.0581 34.2275 97.8941 33.8446 97.6219 33.5488Z" fill="white"/>
<path d="M98.1293 35.0433C98.1293 35.6753 97.9777 36.1797 97.6776 36.5596C97.4579 36.8336 97.198 37.0079 96.8887 37.0827C96.7711 37.1107 96.6442 37.1263 96.5112 37.1263C96.109 37.1263 95.8213 37.0266 95.6449 36.8242C95.4686 36.6219 95.3356 36.3883 95.2489 36.1237C95.1623 35.859 95.0664 35.6255 94.9674 35.4231C94.8653 35.2208 94.7044 35.1211 94.4786 35.1211C94.1011 35.1211 93.6123 35.6006 93.009 36.5596C92.4057 37.5186 91.7622 38.8138 91.0723 40.4422C90.3793 42.0706 89.7172 43.8952 89.0768 45.9159C88.4364 47.9366 87.8764 50.0071 87.4 52.1275C87.3257 52.4077 87.1494 52.5447 86.874 52.5447H85.3302C84.9806 52.5447 84.8414 52.3828 84.9156 52.0527L88.4921 36.9394C88.6189 36.3821 88.6375 35.9462 88.5478 35.6317C88.4611 35.3173 88.2291 35.1585 87.8516 35.1585C87.4 35.1585 86.9049 35.4916 86.3666 36.1611C85.8252 36.8305 85.2188 38.1008 84.5413 39.969C84.4392 40.2959 84.2628 40.4609 84.0122 40.4609C83.6379 40.4609 83.5358 40.2336 83.7121 39.779C84.2628 38.0354 84.8476 36.6717 85.4632 35.6878C86.0789 34.7039 86.6977 34.0096 87.3257 33.6048C87.9537 33.2 88.5292 32.9977 89.0582 32.9977C89.8843 32.9977 90.4752 33.309 90.8279 33.9255C91.1775 34.5451 91.1899 35.5632 90.865 36.9768L90.4504 38.7578C90.4257 38.9321 90.4628 39.0349 90.5618 39.0598C90.5773 39.0629 90.5928 39.066 90.6051 39.066C90.6887 39.066 90.7629 39.0006 90.8279 38.8699C91.7808 36.6717 92.647 35.146 93.4236 34.2867C94.2001 33.4273 95.0911 32.9977 96.0966 32.9977C96.7742 32.9977 97.2816 33.1814 97.6219 33.5488C97.8941 33.8446 98.0581 34.2275 98.1076 34.6977C98.1231 34.8066 98.1293 34.9219 98.1293 35.0433Z" fill="white"/>
<path d="M106.09 26.1229C105.749 25.8084 105.332 25.6496 104.827 25.6496C104.323 25.6496 103.831 25.852 103.417 26.2568C103.002 26.6615 102.795 27.2033 102.795 27.8852C102.795 28.3647 102.953 28.7757 103.265 29.115C103.581 29.4575 103.973 29.6257 104.453 29.6257C105.028 29.6257 105.53 29.4264 105.957 29.0216C106.384 28.6169 106.597 28.0626 106.597 27.3559C106.597 26.8484 106.427 26.4405 106.09 26.1229ZM106.486 45.4613C106.235 45.4613 106.059 45.6263 105.957 45.9532C105.279 47.8245 104.673 49.0917 104.131 49.7611C103.593 50.4306 103.098 50.7637 102.646 50.7637C102.269 50.7637 102.037 50.608 101.95 50.2905C101.86 49.976 101.879 49.5401 102.006 48.9859L104.79 36.9768C105.118 35.5632 105.106 34.5451 104.753 33.9255C104.4 33.309 103.788 32.9977 102.909 32.9977C102.383 32.9977 101.805 33.2 101.177 33.6048C101.115 33.6453 101.05 33.6889 100.988 33.7356C100.852 33.8352 100.719 33.9504 100.583 34.0781C100.53 34.1279 100.477 34.1808 100.422 34.2369C100.363 34.296 100.301 34.3614 100.239 34.4299C100.125 34.5607 100.007 34.7008 99.8927 34.8502C99.8649 34.8845 99.8371 34.9187 99.8123 34.9561C99.7659 35.0184 99.7195 35.0806 99.6731 35.146C99.5524 35.3142 99.4349 35.4947 99.3142 35.6878C98.8934 36.3603 98.4882 37.2103 98.0952 38.2378C97.987 38.5243 97.8787 38.8263 97.7704 39.1439C97.7364 39.2466 97.7023 39.3494 97.6683 39.4552C97.6312 39.5611 97.5971 39.6701 97.5631 39.779C97.3868 40.2336 97.4889 40.4609 97.8663 40.4609C98.1169 40.4609 98.2902 40.2959 98.3923 39.969C99.0698 38.1008 99.6762 36.8305 100.218 36.1611C100.756 35.4916 101.254 35.1585 101.706 35.1585C102.08 35.1585 102.312 35.3173 102.402 35.6317C102.488 35.9462 102.47 36.3821 102.343 36.9394L99.5586 48.9454C99.2338 50.3621 99.2461 51.3771 99.5957 51.9967C99.9484 52.6132 100.536 52.9245 101.365 52.9245C101.916 52.9245 102.507 52.7222 103.135 52.3174C103.763 51.9157 104.394 51.2121 105.035 50.2157C105.675 49.2194 106.26 47.8619 106.786 46.1432C106.962 45.6886 106.86 45.4613 106.486 45.4613Z" fill="white"/>
</g>
<defs>
<clipPath id="clip0_40_28">
<rect width="168.455" height="54.5" fill="white"/>
</clipPath>
</defs>
</svg>
