<svg width="82" height="82" viewBox="0 0 82 82" fill="none" xmlns="http://www.w3.org/2000/svg">
<path d="M12.5841 11.9131C53.9858 -27.1354 110.457 39.4579 65.0476 73.1726C24.5277 103.225 -23.1664 45.6277 12.5841 11.9131Z" fill="#FF7B29"/>
<path d="M58.5341 24.232C61.8614 24.1389 63.4824 28.2833 64.0108 30.9705C65.929 40.7577 58.8451 57.6532 47.4542 58.8968C31.0216 60.6937 19.1436 53.3553 17.6272 36.3256C17.3244 32.9509 17.5556 25.2154 22.4406 25.2291C27.9089 25.2455 27.4411 35.1697 30.584 37.1365C34.2167 39.41 34.3708 31.669 34.8222 29.8885C35.8047 26.0235 38.2375 23.4815 42.3959 25.3688C45.1618 26.6233 45.2058 33.0632 46.7442 35.5587C48.0542 37.6843 49.466 37.9527 50.8035 35.6573C52.774 32.2689 53.3217 24.3772 58.5341 24.232Z" fill="black"/>
</svg>
