<svg width="58" height="57" viewBox="0 0 58 57" fill="none" xmlns="http://www.w3.org/2000/svg">
<path d="M8.87461 8.31489C38.072 -18.9396 77.8969 27.5403 45.8731 51.0719C17.2975 72.0475 -16.3375 31.8465 8.87461 8.31489Z" fill="black"/>
<path d="M21.2804 39.9797L20.7222 37.2543L28.57 29.9975C30.376 28.3229 31.9522 26.484 31.9522 24.1198C31.9522 21.9855 30.6387 20.5735 28.1103 20.5735C25.9431 20.5735 24.0058 21.7884 22.4625 23.5944L20.4923 20.9019C22.4625 18.6033 25.0237 16.9615 28.7014 16.9615C33.4298 16.9615 36.3522 19.6869 36.3522 23.6601C36.3522 27.7318 33.1343 30.7527 32.0835 31.7378L27.1252 36.3677H37.2388V39.9797H21.2804Z" fill="white"/>
</svg>
