<svg width="58" height="57" viewBox="0 0 58 57" fill="none" xmlns="http://www.w3.org/2000/svg">
<path d="M8.87461 8.31489C38.072 -18.9396 77.8969 27.5403 45.8731 51.0719C17.2975 72.0475 -16.3375 31.8465 8.87461 8.31489Z" fill="black"/>
<path d="M28.7178 40.1603C24.7775 40.1603 21.9864 38.3543 20.6401 36.3185L22.7745 33.5602C24.2521 35.5632 26.3208 36.5483 28.5208 36.5483C30.7865 36.5483 32.7567 35.4976 32.7567 33.1005C32.7567 30.8348 31.0164 29.7184 28.685 29.7184H26.2551V26.5004H28.6193C30.7537 26.5004 32.1328 25.3183 32.1328 23.381C32.1328 21.3123 30.5567 20.3929 28.488 20.3929C26.4521 20.3929 24.7118 21.3123 23.0372 22.7899L21.264 19.8018C22.676 18.3242 25.5327 16.7809 28.9805 16.7809C33.1507 16.7809 36.4015 18.9809 36.4015 22.8556C36.4015 25.9094 34.3657 27.2885 33.0194 27.7811V27.8796C34.8582 28.3064 37.0911 30.0796 37.0911 33.3632C37.0911 37.6319 33.3149 40.1603 28.7178 40.1603Z" fill="white"/>
</svg>
