<svg width="82" height="81" viewBox="0 0 82 81" fill="none" xmlns="http://www.w3.org/2000/svg">
<path d="M12.5841 11.7905C53.9858 -26.8561 110.457 39.0519 65.0476 72.4195C24.5277 102.163 -23.1664 45.1581 12.5841 11.7905Z" fill="#FF7B29"/>
<g clip-path="url(#clip0_40_52)">
<path d="M14.0518 30.4048C13.8875 30.6038 13.7408 30.7563 13.6523 30.7847C13.8723 30.8054 14.0973 30.8235 14.3173 30.8442C14.3223 30.839 14.3248 30.8364 14.3274 30.8339C14.1883 30.7305 14.0998 30.5805 14.0518 30.4048ZM35.1468 69.6599C35.1417 69.6341 35.1367 69.6082 35.1291 69.5798C34.8434 69.5772 34.5931 69.5255 34.3757 69.4376C34.4086 69.6263 34.4313 69.8124 34.4389 70.0011C34.4996 70.0166 34.5552 70.0295 34.6083 70.0399C34.9142 70.1019 35.0912 70.0993 35.1847 70.089C35.1898 70.0114 35.1872 69.877 35.1468 69.6599ZM38.8303 18.7655C38.7166 18.8456 38.6053 18.9283 38.4916 19.0085C38.6306 19.0188 38.7671 19.0317 38.9062 19.0421L38.8303 18.7655ZM39.4877 18.2951C39.3789 18.3726 39.2677 18.4527 39.159 18.5303L39.5686 18.5639C39.5382 18.4734 39.5129 18.3829 39.4877 18.2951ZM51.0768 49.7209C51.0793 49.77 51.0818 49.8191 51.0869 49.8682L51.2133 49.7726C51.1678 49.7545 51.1223 49.739 51.0768 49.7209ZM51.1172 50.3722C51.1197 50.4188 51.1223 50.4627 51.1248 50.5092C51.1652 50.4782 51.2032 50.4498 51.2436 50.4214L51.1172 50.3722ZM56.6412 53.6394C56.616 53.6885 56.5907 53.7351 56.5679 53.7842L56.7752 53.7635C56.7297 53.7221 56.6868 53.6808 56.6412 53.6394ZM57.1317 54.0969L57.0559 54.2365C57.1241 54.2313 57.1924 54.2262 57.2607 54.2184C57.2177 54.1771 57.1747 54.1383 57.1317 54.0969ZM65.4519 42.1681C65.4898 42.2483 65.5277 42.3258 65.5657 42.4059C65.6668 42.3336 65.7705 42.2586 65.8716 42.1862L65.4519 42.1681ZM66.0435 41.6641L66.1851 41.9639C66.3115 41.8735 66.4354 41.783 66.5618 41.6925C66.3924 41.6848 66.2179 41.6744 66.0435 41.6641ZM68.602 42.1294C68.2657 42.1992 67.9523 42.4085 67.9497 42.6928C67.9497 42.7187 67.9497 42.742 67.9472 42.7678C67.9523 42.7885 67.9548 42.8066 67.9573 42.8273C67.9978 43.1168 68.3239 43.1995 68.6576 43.14C68.6905 42.9565 68.7006 42.7833 68.6905 42.6256C68.6804 42.4861 68.65 42.3181 68.602 42.1294Z" fill="black"/>
<path d="M14.3451 30.8468C14.3451 30.8468 14.3274 30.8442 14.3173 30.8442C14.0973 30.8235 13.8723 30.8054 13.6523 30.7847C13.7408 30.7563 13.8875 30.6038 14.0518 30.4048C14.0998 30.5806 14.1883 30.7305 14.3274 30.8339C14.3324 30.839 14.3375 30.8416 14.3451 30.8468Z" fill="black"/>
<path d="M23.2821 24.4779C23.2821 24.4779 23.2568 24.5063 23.2417 24.5244C23.2164 24.5528 23.1835 24.5813 23.1481 24.6045C23.1456 24.6045 23.1456 24.6019 23.1431 24.6019C23.186 24.5709 23.2442 24.5166 23.2821 24.4779Z" fill="black"/>
<path d="M35.1468 69.6599C35.1872 69.8771 35.1897 70.0115 35.1847 70.089C35.0911 70.0993 34.9142 70.1019 34.6083 70.0399C34.5526 70.0787 34.4996 70.1174 34.4439 70.1562C34.4439 70.1045 34.4414 70.0528 34.4389 70.0011C34.4313 69.8124 34.4085 69.6263 34.3757 69.4376C34.5931 69.5255 34.8434 69.5772 35.1291 69.5798C35.172 69.5798 35.215 69.5798 35.2605 69.5772C35.2226 69.6031 35.1847 69.6315 35.1468 69.6599Z" fill="black"/>
<path d="M69.4286 42.4989C69.416 42.8297 69.0317 43.0727 68.6575 43.1399C68.3238 43.1994 67.9977 43.1167 67.9572 42.8272C67.9547 42.8065 67.9522 42.7884 67.9471 42.7677C67.9497 42.7419 67.9497 42.7186 67.9497 42.6927C67.9522 42.4084 68.2657 42.1991 68.6019 42.1293C68.9786 42.0517 69.3831 42.1448 69.4286 42.4937C69.4286 42.4705 69.4261 42.4472 69.4236 42.4239C69.2542 41.1445 68.5994 39.9141 68.0432 38.7716C67.396 37.4431 66.7159 36.1015 65.912 34.866C64.3748 32.5009 61.9731 30.5287 61.4219 27.6441C60.5598 23.1544 57.5437 20.324 53.5366 18.5276C49.7747 16.8423 45.583 16.0384 41.4949 15.9609C40.3901 15.9402 38.9693 16.116 37.9151 15.7128C37.417 15.5215 37.015 15.0717 36.6232 14.7254C36.0139 14.1851 35.4097 13.7638 34.6664 13.4175C32.5427 12.4327 30.0676 12.2983 27.9136 13.2624C25.8861 14.1696 24.3641 16.0514 23.818 18.2355C23.6259 19.0084 23.588 19.8613 23.0621 20.4817C22.5716 21.0633 21.841 21.4923 21.2267 21.9188C19.0878 23.4025 16.7796 24.6871 14.7672 26.3569C13.5739 27.3443 11.4199 29.8412 12.9747 31.4903C13.4652 32.0124 14.1604 31.71 14.6256 31.3378C15.0655 30.9863 15.3765 30.4667 15.7683 30.0609C16.3397 29.469 16.9894 28.9469 17.6316 28.4377C18.787 27.5149 20.003 26.6722 21.2317 25.8503C21.7348 25.5117 22.243 25.1782 22.7511 24.8448C22.8649 24.7698 23.0267 24.6975 23.1481 24.6044C23.1455 24.6044 23.1455 24.6018 23.143 24.6018C23.0975 24.6329 23.0697 24.6354 23.0899 24.5682C23.1076 24.5786 23.1253 24.5915 23.143 24.6018C23.186 24.5708 23.2441 24.5165 23.282 24.4778C23.2719 24.4907 23.2568 24.5062 23.2416 24.5243C23.2163 24.5527 23.1834 24.5812 23.1481 24.6044C23.411 24.7698 23.6764 24.9379 23.9394 25.1007C23.947 25.2196 23.9571 25.3385 23.9647 25.4574C24.0936 25.7857 24.1517 26.1734 24.2326 26.5172C24.359 27.0367 24.4779 27.5562 24.6093 28.0732C24.8116 28.8797 24.9633 29.973 25.4537 30.6683C26.4296 32.0512 28.8541 31.1491 28.9654 29.5569C29.0614 28.1921 28.3005 26.6231 27.8884 25.3695C27.3246 23.6558 26.7734 21.9395 27.0465 20.1121C27.5344 16.8604 30.3508 14.8029 33.2936 16.8035C34.7144 17.7728 35.4172 19.135 36.0847 20.6859C36.4614 21.5621 36.9493 22.2187 37.9783 22.1463C38.8454 22.0868 39.7025 21.451 39.8997 20.5566C40.0008 20.0966 39.887 19.5925 39.7429 19.1092C43.6262 19.4348 47.5499 19.851 51.1905 21.3553C53.4633 22.2962 55.6324 23.7566 56.8814 25.9718C57.2024 26.5404 57.4451 27.153 57.6221 27.7863C57.8345 28.5488 57.6954 29.332 57.8598 30.0842C58.1252 31.3119 59.5966 32.5449 60.3449 33.4832C62.3068 35.9413 63.8136 38.7639 65.1813 41.6046C64.0816 41.5322 62.9515 41.4934 61.9377 41.7958C61.3511 41.969 60.7368 42.2766 60.6306 42.9435C60.4461 44.0911 61.6823 44.7192 61.8062 45.7816C61.9655 47.1696 60.8101 48.7748 59.8115 49.6096C58.7952 50.4574 57.5008 50.8607 56.2038 50.9227C54.6465 50.9951 53.2307 50.5221 51.8073 49.9922C53.3166 48.8394 54.7526 47.6452 55.8777 46.0478C57.4679 43.7861 58.3401 41.0359 58.2061 38.2417C58.0721 35.4864 56.9825 32.7336 55.0889 30.7536C53.6352 29.2312 50.9326 26.8041 48.6345 27.2306C46.7105 27.5898 45.722 30.3788 46.4881 32.0977C47.5979 34.5843 50.8163 32.4415 52.5531 33.7339C53.8678 34.7135 54.2976 36.8434 54.4113 38.402C54.5327 40.0692 54.2116 41.7622 53.4582 43.2485C52.6391 44.8588 51.3396 46.1822 49.7165 46.924C48.8772 47.3092 47.426 47.6814 47.0316 48.6714C46.172 50.8297 49.896 52.7527 51.2865 53.4041C53.0461 54.2261 54.5479 54.3992 56.3075 54.2958C55.8574 55.2005 55.3872 56.1517 54.6818 56.8289C52.5481 58.8787 49.5977 56.6661 47.608 55.4823C45.9142 54.4716 44.3771 53.7194 42.3874 53.7375C40.8073 53.753 39.2499 54.164 37.8721 54.9576C34.636 56.8186 32.8764 60.4993 31.941 64.0379C31.2053 66.8321 31.2913 70.7377 35.1088 70.6007C35.3768 70.5903 35.9254 70.3655 35.9254 70.0217C35.9229 69.3522 35.6802 68.7164 35.5664 68.0624C35.3692 66.9329 35.44 65.8292 35.6751 64.7125C35.9785 63.2651 36.4538 61.8357 37.1617 60.5407C38.0794 58.8632 39.5002 57.3924 41.457 57.1701C43.5023 56.9401 45.1052 58.1601 46.7409 59.2069C49.6356 61.0576 53.5745 62.0631 56.5476 59.8325C57.8496 58.858 58.9342 57.2994 59.4803 55.7511C59.7913 54.8723 59.6977 53.8771 60.4006 53.187C61.0351 52.564 61.9276 52.228 62.6152 51.6697C63.356 51.07 63.849 50.2636 64.3546 49.4623C65.06 48.3508 65.8715 47.8287 66.8676 47.0533C68.1367 46.0659 69.4185 44.2436 69.4312 42.5583C69.4312 42.5377 69.4312 42.517 69.4312 42.4989H69.4286ZM14.3172 30.8441C14.0972 30.8234 13.8722 30.8053 13.6523 30.7846C13.7408 30.7562 13.8874 30.6037 14.0517 30.4047C14.0998 30.5804 14.1882 30.7304 14.3273 30.8338C14.3323 30.8389 14.3374 30.8415 14.345 30.8467C14.3349 30.8467 14.3273 30.8441 14.3172 30.8441ZM35.1846 70.0889C35.0911 70.0992 34.9141 70.1018 34.6082 70.0398C34.5526 70.0786 34.4995 70.1173 34.4439 70.1561C34.4439 70.1044 34.4414 70.0527 34.4388 70.001C34.4313 69.8123 34.4085 69.6262 34.3756 69.4375C34.5931 69.5254 34.8433 69.5771 35.129 69.5797C35.172 69.5797 35.215 69.5797 35.2605 69.5771C35.2226 69.603 35.1846 69.6314 35.1467 69.6598C35.1872 69.8769 35.1897 70.0113 35.1846 70.0889ZM39.4876 18.295C39.5129 18.3828 39.5381 18.4733 39.5685 18.5638L39.1589 18.5302C39.2676 18.4526 39.3789 18.3725 39.4876 18.295ZM38.4915 19.0084C38.6053 18.9282 38.7165 18.8455 38.8303 18.7654L38.9061 19.042C38.7671 19.0316 38.6305 19.0187 38.4915 19.0084ZM56.7752 53.7634L56.5679 53.7841C56.5906 53.735 56.6159 53.6884 56.6412 53.6393C56.6867 53.6807 56.7297 53.722 56.7752 53.7634ZM51.2435 50.4213C51.2031 50.4497 51.1652 50.4781 51.1247 50.5091C51.1222 50.4626 51.1197 50.4187 51.1171 50.3721L51.2435 50.4213ZM51.0868 49.8681C51.0817 49.819 51.0792 49.7699 51.0767 49.7208C51.1222 49.7389 51.1677 49.7544 51.2132 49.7725L51.0868 49.8681ZM57.0558 54.2364L57.1316 54.0968C57.1746 54.1382 57.2176 54.177 57.2606 54.2183C57.1923 54.2261 57.1241 54.2312 57.0558 54.2364ZM65.5656 42.4058C65.5277 42.3257 65.4898 42.2482 65.4518 42.168L65.8715 42.1861C65.7704 42.2585 65.6667 42.3335 65.5656 42.4058ZM66.185 41.9638L66.0434 41.664C66.2179 41.6743 66.3923 41.6847 66.5617 41.6924C66.4353 41.7829 66.3114 41.8734 66.185 41.9638Z" fill="black"/>
<path d="M38.8303 18.7655L38.9061 19.0421C38.7671 19.0317 38.6306 19.0188 38.4915 19.0085C38.6053 18.9283 38.7165 18.8456 38.8303 18.7655Z" fill="black"/>
<path d="M39.4876 18.2951C39.5129 18.3829 39.5382 18.4734 39.5685 18.5639L39.1589 18.5303C39.2676 18.4527 39.3789 18.3726 39.4876 18.2951Z" fill="black"/>
<path d="M51.2132 49.7726L51.0868 49.8682C51.0818 49.8191 51.0792 49.77 51.0767 49.7209C51.1222 49.739 51.1677 49.7545 51.2132 49.7726Z" fill="black"/>
<path d="M51.1172 50.3723L51.2436 50.4214C51.2031 50.4498 51.1652 50.4782 51.1248 50.5092C51.1222 50.4627 51.1197 50.4188 51.1172 50.3723Z" fill="black"/>
<path d="M56.6412 53.6394C56.6867 53.6808 56.7297 53.7221 56.7752 53.7635L56.5679 53.7842C56.5906 53.7351 56.6159 53.6885 56.6412 53.6394Z" fill="black"/>
<path d="M57.1317 54.0969C57.1747 54.1383 57.2177 54.1771 57.2606 54.2184C57.1924 54.2262 57.1241 54.2313 57.0558 54.2365L57.1317 54.0969Z" fill="black"/>
<path d="M65.4518 42.1682L65.8715 42.1862C65.7704 42.2586 65.6667 42.3336 65.5656 42.406C65.5277 42.3258 65.4898 42.2483 65.4518 42.1682Z" fill="black"/>
<path d="M66.5617 41.6925C66.4353 41.783 66.3114 41.8735 66.185 41.9639L66.0435 41.6641C66.2179 41.6744 66.3923 41.6848 66.5617 41.6925Z" fill="black"/>
<path d="M69.4286 42.4938V42.499C69.416 42.8299 69.0317 43.0728 68.6576 43.14C68.3238 43.1995 67.9977 43.1168 67.9573 42.8273C67.9547 42.8066 67.9522 42.7885 67.9471 42.7678C67.9497 42.742 67.9497 42.7187 67.9497 42.6929C67.9522 42.4085 68.2657 42.1992 68.6019 42.1294C68.9786 42.0518 69.3831 42.1449 69.4286 42.4938Z" fill="black"/>
<path d="M40.6556 29.4096C40.6556 29.5001 40.648 29.5958 40.6354 29.7017C40.6328 29.7198 40.6303 29.7405 40.6227 29.7586C40.2814 29.8284 39.9477 29.7974 39.9224 29.6113C39.9224 29.6035 39.9199 29.5957 39.9174 29.588C39.9224 29.5673 39.9249 29.5441 39.9275 29.5208C39.9426 29.3218 40.2738 29.1486 40.6151 29.0736C40.6429 29.1718 40.6556 29.283 40.6556 29.4096Z" fill="black"/>
<path d="M41.3837 29.2959C41.3255 29.513 40.9691 29.6862 40.6227 29.7586C40.2814 29.8284 39.9477 29.7974 39.9224 29.6113C39.9224 29.6035 39.9199 29.5958 39.9174 29.588C39.9224 29.5673 39.9249 29.5441 39.9275 29.5208C39.9426 29.3218 40.2738 29.1486 40.6151 29.0736C40.9994 28.9909 41.3989 29.0297 41.3837 29.2959Z" fill="black"/>
<path d="M46.8799 40.8111C46.8951 40.9533 46.8091 41.111 46.6221 41.2635C46.3819 41.2661 46.1847 41.1911 46.1468 41.0127C46.1442 40.9972 46.1417 40.9843 46.1367 40.9714C46.1417 40.9507 46.1442 40.9274 46.1468 40.9042C46.1594 40.6974 46.4097 40.5268 46.7004 40.4389C46.8091 40.5733 46.8673 40.7026 46.8799 40.8111Z" fill="black"/>
<path d="M47.6131 40.7103C47.6131 40.7103 47.6156 40.7155 47.6131 40.7181C47.6131 40.7232 47.6131 40.7258 47.6106 40.731C47.5474 41.0334 47.0266 41.2583 46.6221 41.2635C46.3819 41.266 46.1847 41.1911 46.1468 41.0127C46.1442 40.9972 46.1417 40.9843 46.1367 40.9714C46.1417 40.9507 46.1442 40.9274 46.1468 40.9042C46.1594 40.6974 46.4097 40.5268 46.7004 40.4389C47.1201 40.3071 47.6283 40.351 47.6131 40.7103Z" fill="black"/>
<path d="M31.6401 21.3451C31.6502 21.3994 31.6452 21.4692 31.6376 21.5441C31.625 21.5286 31.6123 21.5131 31.5997 21.5002C31.4303 21.3193 31.0157 21.1823 31.4606 21.1332C31.9106 21.0841 31.5946 21.0892 31.6401 21.3451Z" fill="black"/>
<path d="M32.8132 25.199C32.5199 25.3541 32.4466 25.2947 32.5882 25.0181C32.5705 24.9018 32.5983 24.7415 32.6185 24.5994C32.7551 24.7441 32.8891 24.8863 32.9548 25.0259C33.1823 25.1473 33.1343 25.2042 32.8132 25.199Z" fill="black"/>
<path d="M33.3669 24.3461C33.3669 24.4779 33.3593 24.6071 33.3466 24.7286C32.9902 24.8062 32.6387 24.7648 32.6337 24.5477C32.6337 24.5296 32.6337 24.5089 32.6312 24.4908C32.6337 24.4753 32.6362 24.4598 32.6362 24.4443C32.6438 24.2116 32.9927 24.0204 33.3466 23.9532C33.3593 24.0824 33.3669 24.2168 33.3669 24.3461Z" fill="black"/>
<path d="M31.6401 21.3451C31.6502 21.3994 31.6452 21.4692 31.6376 21.5441C31.625 21.5286 31.6123 21.5131 31.5997 21.5002C31.4303 21.3193 31.0157 21.1823 31.4606 21.1332C31.9106 21.0841 31.5946 21.0892 31.6401 21.3451Z" fill="black"/>
<path d="M32.8132 25.199C32.5199 25.3541 32.4466 25.2947 32.5882 25.0181C32.5705 24.9018 32.5983 24.7415 32.6185 24.5994C32.7551 24.7441 32.8891 24.8863 32.9548 25.0259C33.1823 25.1473 33.1343 25.2042 32.8132 25.199Z" fill="black"/>
<path d="M34.095 24.2065C34.0495 24.465 33.6955 24.6536 33.3466 24.7286C32.9902 24.8061 32.6387 24.7648 32.6337 24.5477C32.6337 24.5296 32.6337 24.5089 32.6312 24.4908C32.6337 24.4753 32.6362 24.4598 32.6362 24.4443C32.6438 24.2116 32.9927 24.0204 33.3466 23.9532C33.7056 23.8808 34.0722 23.9377 34.095 24.2065Z" fill="black"/>
<path d="M19.1788 33.155C19.1485 33.2325 19.1156 33.3075 19.0752 33.385C19.0853 33.4316 19.0802 33.4755 19.0625 33.5143C19.0271 33.6022 18.9437 33.5763 18.8097 33.4367C18.7971 33.4083 18.7844 33.4264 18.7769 33.4367C18.7769 33.4316 18.7794 33.429 18.7794 33.4238C18.7895 33.3876 18.9892 33.2661 19.1788 33.1576V33.155Z" fill="black"/>
<path d="M20.4251 31.4801H20.4125C20.4125 31.4801 20.4226 31.4749 20.4251 31.4801Z" fill="black"/>
<path d="M20.7058 31.5421C20.6553 31.5498 20.6098 31.5705 20.5643 31.599C20.5061 31.6403 20.4454 31.6817 20.3848 31.7204C20.3999 31.6791 20.4151 31.6377 20.4353 31.599C20.4379 31.5964 20.4404 31.4982 20.4252 31.4801C20.7362 31.4956 20.8297 31.5162 20.7058 31.5421Z" fill="black"/>
<path d="M41.6516 46.5261C40.5064 46.601 38.8176 47.2007 38.5066 48.5112C38.4763 48.6379 38.5698 48.7826 38.6735 48.8446C39.9805 49.6123 42.1623 49.0127 43.1079 47.8857C43.1407 47.8469 43.1685 47.8081 43.1888 47.772C42.984 48.0718 42.5921 48.2424 42.2382 48.201C42.1724 48.1933 42.0966 48.17 42.0233 48.139C41.8261 48.0485 41.6617 47.8702 41.8109 47.6427C41.8337 47.6169 41.8539 47.591 41.8741 47.5626C41.8741 47.5626 41.8665 47.5626 41.8615 47.56C41.8766 47.5471 41.8868 47.5316 41.8994 47.5186C41.9019 47.5186 41.9019 47.5161 41.9019 47.5161C41.9348 47.4592 41.9575 47.3997 41.9752 47.3377C41.9879 47.3636 42.003 47.3894 42.0157 47.4153C42.1977 47.2912 42.4733 47.2343 42.716 47.2472C43.08 47.2653 43.3733 47.4359 43.1963 47.759C43.975 46.5778 42.4859 46.4692 41.6516 46.5261ZM39.983 48.3665C39.9274 48.2553 39.8718 48.1442 39.8162 48.033C39.8996 48.0821 39.9906 48.1183 40.0842 48.1416C40.0361 48.2088 40.0033 48.2837 39.983 48.3665Z" fill="black"/>
<path d="M46.1467 40.9042C46.1442 40.9275 46.1417 40.9507 46.1366 40.9714C46.1417 40.9843 46.1442 40.9972 46.1467 41.0128C46.1846 41.1911 46.3818 41.2661 46.622 41.2635C47.0265 41.2583 47.5473 41.0334 47.6105 40.731C47.5119 42.026 45.0192 42.2741 44.1495 42.2896C43.3405 42.3051 41.0019 42.0156 41.2952 40.6586C41.5632 39.4024 43.7273 39.1776 44.6854 39.1801C45.6032 39.1853 47.3704 39.4515 47.6131 40.6095C47.6206 40.6431 47.6206 40.6793 47.6131 40.7103C47.6282 40.351 47.1201 40.3071 46.7004 40.4389C46.4097 40.5268 46.1594 40.6974 46.1467 40.9042Z" fill="black"/>
<path d="M24.1871 42.7446C23.684 43.4063 23.196 44.0783 22.7207 44.7607C22.3794 45.2492 22.0457 45.9807 21.6159 46.371C21.128 46.8104 20.1041 46.9888 19.4746 46.8828C16.2916 46.3426 22.1595 39.7152 22.9508 38.857C25.8304 35.732 29.1271 32.9095 32.7323 30.6943C33.9761 29.9318 40.9488 26.0184 41.3887 29.208C41.3937 29.2391 41.3912 29.2675 41.3836 29.2959C41.3988 29.0297 40.9994 28.9909 40.6151 29.0736C40.2738 29.1486 39.9426 29.3218 39.9274 29.5208C39.9249 29.5441 39.9224 29.5673 39.9173 29.588C39.9198 29.5958 39.9224 29.6035 39.9224 29.6113C39.9476 29.7974 40.2814 29.8284 40.6227 29.7586C40.969 29.6862 41.3255 29.513 41.3836 29.2985C41.2522 31.1776 37.5434 31.7515 36.2464 32.302C33.8017 33.3385 31.5642 35.0161 29.5872 36.7892C27.5925 38.5753 25.8127 40.6069 24.1871 42.7446Z" fill="black"/>
<path d="M31.8348 54.084C32.6817 54.1538 33.5438 53.8359 34.1834 53.2672C34.6461 52.8562 35.1492 52.2411 35.1897 51.5871C35.1922 51.5509 35.1897 51.5199 35.1745 51.4915C35.1745 51.4889 35.1745 51.4837 35.1745 51.4811C35.1467 51.4165 35.0835 51.37 35 51.3441C34.9925 51.3416 34.9823 51.339 34.9722 51.3364C34.9571 51.3364 34.9419 51.3364 34.9242 51.3312C34.8205 51.3209 34.7118 51.3183 34.6031 51.3209H34.5905C33.2152 51.3597 31.587 52.4065 31.5643 53.9212C31.5643 54.0246 31.7792 54.0814 31.8373 54.084H31.8348ZM32.8081 53.2827C32.8814 53.2207 32.9598 53.1664 33.0331 53.1018C33.0963 53.0423 33.157 52.9803 33.2101 52.9157C33.286 52.7709 33.382 52.6365 33.468 52.5228C33.4907 52.4918 33.516 52.4608 33.5413 52.4323C33.4983 52.5176 33.4478 52.5978 33.3947 52.6753C33.339 52.758 33.2784 52.8381 33.2101 52.9157C33.1065 53.107 33.0306 53.3189 33.0281 53.5179C32.9371 53.4637 32.846 53.4094 32.755 53.3551C32.5831 53.3396 32.7222 53.3551 32.8081 53.2827Z" fill="black"/>
<path d="M32.0901 44.8227C31.9409 44.8227 31.7867 44.7891 31.6527 44.7245C31.6325 44.7219 31.6098 44.7167 31.5895 44.7116C32.4643 45.2673 33.6095 45.0011 34.4944 44.6082C35.0885 44.342 36.0593 43.794 36.2692 43.0625C36.1074 43.3571 35.5967 43.5588 35.2225 43.4812C35.0885 43.458 34.9722 43.3933 34.8938 43.2874C34.8559 43.2357 34.8028 43.1995 34.7396 43.1788C34.7877 43.1219 34.8155 43.0702 34.8231 43.0185C34.8408 42.879 34.9191 42.7601 35.0304 42.667C35.3287 42.4163 35.8672 42.3387 36.1402 42.5145C35.2402 41.522 33.1974 42.3413 32.3176 42.9229C31.946 43.1685 31.4581 43.5433 31.3064 43.993C31.1876 44.3368 31.3772 44.5927 31.6527 44.7245C31.7994 44.7581 31.9435 44.7917 32.0901 44.8227ZM32.7196 43.8534C32.7196 43.8534 32.7323 43.8664 32.7373 43.8715L32.7828 43.887C32.8132 43.8948 32.8435 43.9025 32.8738 43.9077C32.841 43.9336 32.8157 43.9542 32.7955 43.9723C32.8182 44.0861 32.6488 44.1067 32.7955 43.9723C32.7904 43.9439 32.7752 43.9103 32.7373 43.8715C32.6918 43.8586 32.6488 43.8431 32.6084 43.8302C32.6463 43.8379 32.6817 43.8457 32.7196 43.8534Z" fill="black"/>
<path d="M32.2342 20.4146C31.1218 20.045 30.1839 20.8204 30.146 21.9474C30.103 23.2087 30.6187 24.925 31.678 25.685C32.1584 26.0287 32.75 26.0624 33.286 25.8246C33.9433 25.5299 34.0722 24.938 34.0975 24.2478C34.0975 24.2323 34.0975 24.2194 34.095 24.2065C34.0495 24.465 33.6955 24.6536 33.3466 24.7286C32.9902 24.8061 32.6387 24.7648 32.6337 24.5477C32.6337 24.5296 32.6337 24.5089 32.6312 24.4908C32.6337 24.4753 32.6362 24.4598 32.6362 24.4443C32.6438 24.2116 32.9927 24.0204 33.3466 23.9532C33.7056 23.8808 34.0722 23.9377 34.095 24.2065C34.1 24.1858 34.1 24.1651 34.1 24.1444C34.0672 22.9193 33.5565 20.8566 32.2342 20.4146ZM31.6401 21.3451C31.6502 21.3994 31.6452 21.4692 31.6376 21.5441C31.625 21.5286 31.6123 21.5131 31.5997 21.5002C31.4303 21.3193 31.0157 21.1823 31.4606 21.1332C31.9106 21.0841 31.5946 21.0892 31.6401 21.3451ZM32.9548 25.0259C33.1823 25.1473 33.1343 25.2042 32.8132 25.199C32.5199 25.3541 32.4466 25.2947 32.5882 25.0181C32.5705 24.9018 32.5983 24.7415 32.6185 24.5994C32.755 24.7441 32.889 24.8863 32.9548 25.0259Z" fill="black"/>
<path d="M27.1678 49.6589C27.1678 49.6589 27.1526 49.6356 27.1425 49.6253H27.14C27.0565 49.54 26.8998 49.4986 26.7633 49.5012C26.6621 49.5012 26.5585 49.5064 26.4574 49.5167H26.4548C25.7419 49.5916 25.0441 49.9147 24.5208 50.411C24.0961 50.8143 23.6359 51.4243 23.6309 52.0472C23.6284 52.3083 23.8609 52.347 24.0733 52.3625C25.4208 52.4711 27.14 51.2873 27.2057 49.8165C27.2057 49.8036 27.2057 49.7881 27.2032 49.7778C27.2006 49.7312 27.188 49.6925 27.1678 49.6589ZM25.0922 51.8508C25.0922 51.8508 25.0745 51.8378 25.0643 51.8327C25.0745 51.8301 25.0846 51.8249 25.0947 51.8197C25.0947 51.8301 25.0947 51.8404 25.0947 51.8508H25.0922Z" fill="black"/>
<path d="M20.6123 33.3075C20.6401 33.2868 20.6653 33.2661 20.6932 33.2429C21.1381 32.8397 22.4452 31.5111 21.7246 30.839C21.3429 30.4849 20.635 30.6736 20.2103 30.8313C19.6718 31.0329 19.1864 31.3689 18.7642 31.7618C18.3445 32.1521 16.9894 33.672 17.8262 34.2251C18.1397 34.4319 18.6428 34.3259 18.9715 34.2329C19.5858 34.0623 20.1218 33.7107 20.6123 33.3075ZM18.7793 33.4212C18.7894 33.385 18.9892 33.2636 19.1788 33.155C19.1484 33.2325 19.1156 33.3075 19.0751 33.385C19.0852 33.4316 19.0802 33.4755 19.0625 33.5143C19.0271 33.6022 18.9437 33.5763 18.8097 33.4367C18.797 33.4083 18.7844 33.4264 18.7768 33.4367C18.7768 33.4316 18.7793 33.429 18.7793 33.4238V33.4212ZM20.7058 31.5421C20.6552 31.5499 20.6097 31.5705 20.5642 31.599C20.5061 31.6403 20.4454 31.6817 20.3847 31.7204C20.3999 31.6791 20.4151 31.6377 20.4353 31.599C20.4378 31.5964 20.4403 31.4982 20.4252 31.4801H20.4125C20.4125 31.4801 20.4226 31.4749 20.4252 31.4801C20.7361 31.4956 20.8297 31.5163 20.7058 31.5421Z" fill="black"/>
<path d="M19.1788 33.155C19.1485 33.2325 19.1156 33.3075 19.0752 33.385C19.0853 33.4316 19.0802 33.4755 19.0625 33.5143C19.0271 33.6022 18.9437 33.5763 18.8097 33.4367C18.7971 33.4083 18.7844 33.4264 18.7769 33.4367C18.7769 33.4316 18.7794 33.429 18.7794 33.4238C18.7895 33.3876 18.9892 33.2661 19.1788 33.1576V33.155Z" fill="black"/>
<path d="M20.7058 31.5421C20.6553 31.5498 20.6098 31.5705 20.5643 31.599C20.5061 31.6403 20.4454 31.6817 20.3848 31.7204C20.3999 31.6791 20.4151 31.6377 20.4353 31.599C20.4379 31.5964 20.4404 31.4982 20.4252 31.4801C20.7362 31.4956 20.8297 31.5162 20.7058 31.5421Z" fill="black"/>
<path d="M32.7196 43.8534C32.7196 43.8534 32.7323 43.8664 32.7373 43.8715C32.6918 43.8586 32.6488 43.8431 32.6084 43.8302C32.6463 43.8379 32.6817 43.8457 32.7196 43.8534Z" fill="black"/>
<path d="M32.7955 43.9723C32.8183 44.0861 32.6489 44.1067 32.7955 43.9723Z" fill="black"/>
<path d="M32.8739 43.9077C32.841 43.9336 32.8157 43.9542 32.7955 43.9723C32.7905 43.9439 32.7753 43.9103 32.7374 43.8715L32.7829 43.887C32.8132 43.8948 32.8435 43.9025 32.8739 43.9077Z" fill="black"/>
<path d="M35.5639 42.9591C35.5689 43.0341 35.4703 43.2383 35.2226 43.4812C35.0886 43.458 34.9723 43.3933 34.8939 43.2874C34.856 43.2357 34.8029 43.1995 34.7397 43.1788C34.7877 43.1219 34.8155 43.0702 34.8231 43.0186C34.8408 42.879 34.9192 42.7601 35.0304 42.667C35.2428 42.7032 35.4147 42.7808 35.5209 42.8997C35.5563 42.9384 35.5639 42.9591 35.5639 42.9591Z" fill="black"/>
<path d="M31.6528 44.7245C31.7994 44.7581 31.9435 44.7917 32.0901 44.8227C31.941 44.8227 31.7868 44.7891 31.6528 44.7245Z" fill="black"/>
<path d="M32.7829 43.887C32.8132 43.8948 32.8435 43.9025 32.8739 43.9077C32.841 43.9336 32.8157 43.9542 32.7955 43.9723C32.7905 43.9439 32.7753 43.9103 32.7374 43.8715L32.7829 43.887Z" fill="black"/>
<path d="M36.2718 43.0599C36.2718 43.0599 36.2692 43.0599 36.2692 43.0625C36.1074 43.3572 35.5967 43.5588 35.2226 43.4812C35.0886 43.458 34.9723 43.3933 34.8939 43.2874C34.856 43.2357 34.8029 43.1995 34.7397 43.1788C34.7877 43.1219 34.8155 43.0702 34.8231 43.0185C34.8408 42.879 34.9192 42.7601 35.0304 42.667C35.3287 42.4163 35.8672 42.3387 36.1403 42.5145C36.2313 42.574 36.292 42.6618 36.3071 42.7807V42.7859C36.3324 42.8816 36.3173 42.9746 36.2718 43.0599Z" fill="black"/>
<path d="M39.8162 48.033C39.8997 48.0821 39.9907 48.1183 40.0842 48.1416C40.0362 48.2088 40.0033 48.2837 39.9831 48.3665C39.9275 48.2553 39.8718 48.1442 39.8162 48.033Z" fill="black"/>
<path d="M42.716 47.2472C42.711 47.3222 42.6655 47.4902 42.5037 47.7022C42.3874 47.8521 42.2256 48.0046 42.0233 48.139C41.8261 48.0485 41.6618 47.8702 41.811 47.6427C41.8337 47.6169 41.8539 47.591 41.8742 47.5626C41.8742 47.5626 41.8666 47.5626 41.8615 47.56C41.8767 47.5471 41.8868 47.5316 41.8994 47.5187C41.902 47.5187 41.902 47.5161 41.902 47.5161C41.9348 47.4592 41.9576 47.3997 41.9753 47.3377C41.9879 47.3636 42.0031 47.3894 42.0157 47.4153C42.1978 47.2912 42.4733 47.2343 42.716 47.2472Z" fill="black"/>
<path d="M39.8162 48.033C39.8997 48.0821 39.9907 48.1183 40.0842 48.1416C40.0362 48.2088 40.0033 48.2837 39.9831 48.3665C39.9275 48.2553 39.8718 48.1442 39.8162 48.033Z" fill="black"/>
<path d="M43.1964 47.759C43.1964 47.759 43.1913 47.7694 43.1888 47.772C42.984 48.0718 42.5922 48.2424 42.2382 48.201C42.1725 48.1933 42.0966 48.17 42.0233 48.139C41.8261 48.0485 41.6618 47.8702 41.811 47.6427C41.8337 47.6169 41.8539 47.591 41.8742 47.5626C41.8742 47.5626 41.8666 47.5626 41.8615 47.56C41.8767 47.5471 41.8868 47.5316 41.8994 47.5187C41.902 47.5187 41.902 47.5161 41.902 47.5161C41.9348 47.4592 41.9576 47.3997 41.9753 47.3377C41.9879 47.3636 42.0031 47.3894 42.0157 47.4153C42.1978 47.2912 42.4733 47.2343 42.716 47.2472C43.0801 47.2653 43.3734 47.4359 43.1964 47.759Z" fill="black"/>
<path d="M33.0332 53.1018C33.0964 53.0423 33.157 52.9803 33.2101 52.9157C33.1065 53.107 33.0306 53.3189 33.0281 53.518C32.9371 53.4637 32.8461 53.4094 32.7551 53.3551C32.5831 53.3396 32.7222 53.3551 32.8082 53.2827C32.8815 53.2207 32.9598 53.1664 33.0332 53.1018Z" fill="black"/>
<path d="M33.5413 52.4323C33.4984 52.5176 33.4478 52.5978 33.3947 52.6753C33.3391 52.758 33.2784 52.8382 33.2101 52.9157C33.286 52.7709 33.3821 52.6365 33.468 52.5228C33.4908 52.4918 33.5161 52.4608 33.5413 52.4323Z" fill="black"/>
<path d="M33.0332 53.1018C33.0964 53.0423 33.157 52.9803 33.2101 52.9157C33.1065 53.107 33.0306 53.3189 33.0281 53.518C32.9371 53.4637 32.8461 53.4094 32.7551 53.3551C32.5831 53.3396 32.7222 53.3551 32.8082 53.2827C32.8815 53.2207 32.9598 53.1664 33.0332 53.1018Z" fill="black"/>
<path d="M34.9698 51.3364C34.9546 51.3364 34.9394 51.3364 34.9217 51.3312C34.8181 51.3209 34.7094 51.3183 34.6006 51.3209C34.7372 51.3054 34.8661 51.308 34.9698 51.3364Z" fill="black"/>
<path d="M35.172 51.4811C35.1442 51.4165 35.081 51.37 34.9976 51.3441C35.0987 51.3674 35.1543 51.4165 35.172 51.4811Z" fill="black"/>
<path d="M25.0643 51.8327C25.0643 51.8327 25.0846 51.8249 25.0947 51.8197C25.0947 51.8301 25.0947 51.8404 25.0947 51.8508C25.0846 51.843 25.077 51.8378 25.0669 51.8327H25.0643Z" fill="black"/>
<path d="M27.1399 49.6227C27.0565 49.54 26.8998 49.4986 26.7632 49.5012C26.6621 49.5012 26.5585 49.5064 26.4573 49.5167C26.7354 49.4624 27.0186 49.4831 27.1399 49.6227Z" fill="black"/>
<path d="M27.2032 49.7778C27.2007 49.7312 27.188 49.6925 27.1678 49.6589C27.1931 49.6925 27.2057 49.7338 27.2032 49.7778Z" fill="black"/>
</g>
<defs>
<clipPath id="clip0_40_52">
<rect width="57" height="58" fill="white" transform="translate(12.4312 12.606)"/>
</clipPath>
</defs>
</svg>
