<svg width="47" height="45" viewBox="0 0 47 45" fill="none" xmlns="http://www.w3.org/2000/svg">
<path d="M7.11403 6.55319C30.5192 -14.9268 62.4435 21.7052 36.7726 40.2511C13.8659 56.7826 -13.0964 25.0991 7.11403 6.55319Z" fill="#FF7B29"/>
<path d="M30.4068 21.6975C28.0701 22.3227 25.4829 22.6363 22.9187 22.5007C15.1265 22.0798 13.7708 22.8585 12.5507 21.8096C11.8207 21.2191 12.7577 19.981 15.6573 19.7387C18.5712 19.4962 28.9535 19.4537 29.8637 19.5781C32.0958 19.9271 32.4859 21.1202 30.4068 21.6975Z" fill="black"/>
<path d="M25.5517 25.2393C31.4076 20.821 31.9651 21.4433 31.1057 20.615C30.3005 19.8559 29.4388 19.1395 28.4764 18.5781C27.3083 17.8653 26.3568 16.7865 25.0718 16.3408C24.048 16.0457 24.689 14.696 25.7151 14.8793C26.5333 15.0231 32.0343 18.1715 33.1884 19.5414C35.9597 22.7648 29.6198 25.0642 23.9117 29.7323C23.0761 30.4134 21.9967 30.1189 22.0722 29.1814C22.1586 27.7266 24.4072 26.0499 25.5523 25.2113L25.5517 25.2393Z" fill="black"/>
</svg>
