<svg width="47" height="45" viewBox="0 0 47 45" fill="none" xmlns="http://www.w3.org/2000/svg">
<g opacity="0.61">
<path d="M39.1643 38.3238C15.7591 59.8037 -16.1652 23.1717 9.50568 4.62582C32.4123 -11.9057 59.3747 19.7779 39.1643 38.3238Z" fill="#FF7B29"/>
<path d="M15.8718 23.1775C18.2085 22.5523 20.7958 22.2387 23.36 22.3743C31.1521 22.7952 32.5079 22.0165 33.7279 23.0654C34.4579 23.6559 33.521 24.894 30.6213 25.1363C27.7075 25.3788 17.3251 25.4213 16.4149 25.2969C14.1829 24.9479 13.7927 23.7548 15.8718 23.1775Z" fill="black"/>
<path d="M20.7267 19.6357C14.8709 24.054 14.3134 23.4317 15.1727 24.26C15.9779 25.019 16.8397 25.7355 17.8021 26.2969C18.9701 27.0097 19.9217 28.0885 21.2067 28.5342C22.2304 28.8293 21.5895 30.179 20.5634 29.9957C19.7452 29.8519 14.2442 26.7035 13.0901 25.3336C10.3188 22.1102 16.6587 19.8108 22.3667 15.1427C23.2023 14.4616 24.2818 14.7561 24.2063 15.6936C24.1199 17.1484 21.8713 18.8251 20.7261 19.6637L20.7267 19.6357Z" fill="black"/>
</g>
</svg>
