<svg width="45" height="33" viewBox="0 0 45 33" fill="none" xmlns="http://www.w3.org/2000/svg">
<path d="M37.1733 14.529C32.3994 15.7069 27.0983 16.2664 21.8264 15.9425C5.80583 14.9413 3.05275 16.4431 0.504693 14.3524C-1.01829 13.1745 0.856149 10.7598 6.80163 10.3476C12.7764 9.93529 34.0981 10.0825 35.9725 10.3476C40.5708 11.0837 41.4201 13.4395 37.1733 14.529Z" fill="black"/>
<path d="M27.1275 21.8612C39.2528 12.7032 40.4536 14.0283 38.6085 12.2614C36.8805 10.6419 35.0353 9.1106 32.9852 7.90326C30.4957 6.37201 28.4455 4.07513 25.7217 3.10338C23.5544 2.45554 24.8431 -0.371387 27.0104 0.0408735C28.7384 0.364792 40.4536 7.13764 42.9431 10.0529C48.9179 16.9141 35.6797 21.5962 23.8766 31.2843C22.1486 32.6978 19.8641 32.0499 19.9813 30.077C20.0984 27.0145 24.7552 23.5397 27.1275 21.8023V21.8612Z" fill="black"/>
</svg>
