<svg width="60" height="62" viewBox="0 0 60 62" fill="none" xmlns="http://www.w3.org/2000/svg">
<path d="M50.8029 10.4452C77.7953 41.3919 29.4151 81.4487 6.28819 47.67C-14.3259 17.529 27.4976 -16.2774 50.8029 10.4452Z" fill="#FF7B29"/>
<path d="M30.4725 40.053C29.7438 37.0134 29.4246 33.6596 29.6834 30.3496C30.4809 20.2913 29.5223 18.5148 30.9134 16.9704C31.698 16.0452 33.2619 17.2947 33.4791 21.0499C33.6959 24.8236 33.4104 38.2442 33.2203 39.4168C32.6976 42.2908 31.148 42.7581 30.4725 40.053Z" fill="black"/>
<path d="M26.0545 33.6592C31.5694 41.375 30.7473 42.0772 31.8454 40.9907C32.8524 39.9723 33.8061 38.8793 34.563 37.6512C35.522 36.1617 36.9468 34.9639 37.5647 33.3147C37.9796 31.9989 39.702 32.8704 39.4315 34.1927C39.2188 35.2471 34.9713 42.2684 33.1639 43.7195C28.9091 47.2058 26.1471 38.9293 20.3047 31.3971C19.4523 30.2945 19.8682 28.9066 21.0766 29.0335C22.953 29.1906 25.045 32.1527 26.0906 33.6608L26.0545 33.6592Z" fill="black"/>
</svg>
