<svg width="20" height="19" viewBox="0 0 20 19" fill="none" xmlns="http://www.w3.org/2000/svg">
<path d="M15.6057 12.5833C15.5875 12.9492 15.9353 13.187 16.1177 13.5103C17.1098 15.2725 17.1258 16.2763 15.2195 17.263C13.7442 18.0258 10.8256 18.9528 9.19885 18.6157C7.79182 18.3234 6.5736 16.3211 7.0707 14.9301C6.09037 15.1562 5.46953 16.1067 4.35052 16.111C1.24844 16.1206 -0.390066 10.6866 0.0792985 8.2043C0.403587 6.49112 2.52213 6.00149 3.96329 5.74014C4.01343 4.91661 3.85555 4.25417 4.20544 3.47545C4.91269 1.89881 7.14324 0.971815 8.69748 0.500316C10.0128 0.101356 11.2534 -0.432013 12.398 0.589922C13.3293 1.42091 13.2034 2.91861 13.7389 3.93948C16.1785 2.2807 18.5317 3.79654 19.3414 6.34071C19.7734 7.69867 20.3857 10.6546 19.5377 11.8739C18.856 12.8542 16.6351 12.6227 15.6067 12.5833H15.6057Z" fill="#FF7B29"/>
</svg>
