<svg width="58" height="57" viewBox="0 0 58 57" fill="none" xmlns="http://www.w3.org/2000/svg">
<path d="M8.87461 8.31489C38.072 -18.9396 77.897 27.5403 45.8731 51.0719C17.2975 72.0475 -16.3375 31.8465 8.87461 8.31489Z" fill="black"/>
<path d="M28.5043 39.9797C25.0565 39.9797 22.1013 38.2722 20.5251 36.2035L22.7908 33.4453C24.3341 35.3826 26.4685 36.3677 28.4387 36.3677C30.4089 36.3677 32.8059 35.3498 32.8059 32.2303C32.8059 29.3079 30.7044 27.9616 28.1432 27.9616C26.5998 27.9616 25.1879 28.4542 24.1371 29.1109L22.1013 27.8631L24.2356 16.9615H36.2865V20.5735H26.8297L25.8446 25.5317C26.9282 25.072 28.2745 24.7765 29.6208 24.7765C33.8238 24.7765 37.2059 27.5676 37.2059 32.1318C37.2059 37.3856 32.7731 39.9797 28.5043 39.9797Z" fill="white"/>
</svg>
