<svg width="82" height="82" viewBox="0 0 82 82" fill="none" xmlns="http://www.w3.org/2000/svg">
<path d="M12.5841 11.9131C53.9858 -27.1354 110.457 39.4579 65.0476 73.1726C24.5277 103.225 -23.1664 45.6277 12.5841 11.9131Z" fill="#C29AFF"/>
<path d="M52.1569 47.2571C52.1207 47.9874 52.8148 48.4622 53.1788 49.1073C55.1589 52.6245 55.1908 54.6279 51.3862 56.5973C48.4417 58.1196 42.6165 59.9698 39.3697 59.297C36.5614 58.7136 34.1301 54.7174 35.1222 51.9411C33.1656 52.3924 31.9265 54.2894 29.6931 54.2979C23.5017 54.3171 20.2315 43.4716 21.1683 38.5173C21.8155 35.098 26.0438 34.1208 28.9202 33.5991C29.0203 31.9555 28.7052 30.6333 29.4035 29.0791C30.8151 25.9324 35.267 24.0822 38.369 23.1411C40.9942 22.3449 43.4703 21.2803 45.7548 23.32C47.6134 24.9785 47.3622 27.9677 48.431 30.0053C53.3002 26.6946 57.9969 29.72 59.6129 34.7978C60.4752 37.5081 61.6972 43.4077 60.0046 45.8413C58.6442 47.7979 54.2114 47.3359 52.159 47.2571H52.1569Z" fill="black"/>
</svg>
