<svg width="82" height="82" viewBox="0 0 82 82" fill="none" xmlns="http://www.w3.org/2000/svg">
<path d="M12.5841 11.9131C53.9858 -27.1354 110.457 39.4579 65.0476 73.1726C24.5277 103.225 -23.1664 45.6277 12.5841 11.9131Z" fill="#77E7AC"/>
<path d="M59.894 21.445C60.0983 22.6831 60.3836 23.9375 60.5009 25.1898C61.0087 30.6179 58.4414 36.4283 55.8133 41.1341C51.415 49.0102 46.1569 51.9215 39.9621 57.653C37.0204 60.3741 34.6351 63.6617 31.8857 66.571C31.653 66.7976 31.39 66.7753 31.0967 66.7551C30.5646 66.7187 27.19 65.9114 26.9209 65.6484C26.6943 65.4279 25.4258 61.9158 25.2073 61.2926C22.5105 53.6351 19.2998 44.6018 22.901 36.75L29.2475 27.3161C29.6684 26.8205 30.2692 27.4234 30.6536 27.7248C33.4981 29.9523 36.0635 33.9399 36.3346 37.622C36.5005 39.8656 34.5987 45.324 34.2244 48.0775C33.9655 49.9853 33.6701 52.6174 33.5851 54.5192C33.5669 54.9299 33.397 55.5995 33.9958 55.4377C34.799 52.838 36.201 50.4729 37.0892 47.9056C38.7805 43.0177 39.0395 36.8249 43.0999 33.078C47.0936 29.3959 52.5844 27.1401 56.9564 23.6684C57.3448 23.3609 59.5237 21.1193 59.894 21.449V21.445Z" fill="black"/>
</svg>
