<svg width="82" height="81" viewBox="0 0 82 81" fill="none" xmlns="http://www.w3.org/2000/svg">
<path d="M12.5841 11.7905C53.9858 -26.8561 110.457 39.0519 65.0476 72.4195C24.5277 102.163 -23.1664 45.1581 12.5841 11.7905Z" fill="#77E7AC"/>
<path d="M52.1226 31.4243C53.9341 31.4243 55.4091 30.0513 55.4091 28.3518C55.4091 26.6523 53.9413 25.2793 52.1226 25.2793C50.3039 25.2793 48.8361 26.6523 48.8361 28.3518C48.8361 30.0513 50.3039 31.4243 52.1226 31.4243Z" fill="black"/>
<path d="M63.1494 22.1668C63.1494 22.1668 62.9776 21.9602 62.8773 21.8669C62.1828 21.1204 61.431 20.4472 60.6648 19.7941C56.2828 16.4683 49.9604 15.7485 44.3827 16.515C43.5091 16.6283 42.6642 16.7682 41.8408 16.9815C34.473 18.6544 27.5277 23.4264 28.1005 31.1044C28.2724 33.6437 29.2175 35.9431 30.714 37.8492C30.6639 37.8492 30.6137 37.8959 30.5922 37.9159C26.6613 40.1753 22.7233 42.428 18.7923 44.6608C17.9474 45.1473 17.1025 45.6405 16.2791 46.1004C15.9784 46.287 15.6562 46.4469 15.3555 46.6336L16.0786 48.4731C21.2053 60.2699 34.9743 68.9009 49.4592 65.1086C51.7505 64.5021 54.0417 63.6223 56.333 62.3893C57.7292 60.0633 59.018 57.6639 60.1923 55.1979C61.2591 52.9385 62.2114 50.6858 63.0778 48.3598C64.5456 44.4741 66.0421 39.7021 66.4144 35.0233C66.7868 30.3712 66.0922 25.7858 63.2282 22.1534H63.1566L63.1494 22.1668ZM60.7579 35.5432C60.4572 39.7754 59.3617 43.9876 57.8939 47.9932C56.3759 52.1787 54.4856 56.3443 52.2445 60.2766C40.5234 64.9287 25.2866 60.8098 19.8592 47.9665C19.7375 47.64 19.5871 47.2934 19.4582 46.9868C19.4081 46.8468 25.4799 43.4944 26.0814 43.1945C28.344 42.0748 30.6352 40.9151 32.8763 39.7487C32.7761 39.7954 35.4683 41.8682 35.7404 42.0281C36.9075 42.6813 38.2035 43.1478 39.5209 43.4211C40.8384 43.701 42.1344 43.7477 43.4304 43.581C43.9316 43.5344 44.8266 43.581 44.8767 43.0212C44.8982 42.5547 44.1536 41.8815 44.1321 41.3017C44.082 40.6018 44.2824 39.9087 44.4543 39.2089C45.1273 36.5296 45.4782 33.7903 45.4495 31.0644C45.4495 29.8514 45.2992 28.4784 44.2824 27.692C43.3588 26.9722 42.0413 26.9921 40.8241 27.0655C38.5114 27.1788 36.0411 27.552 33.7284 27.412C33.4062 26.339 34.5017 24.7594 35.1747 23.9463C36.8431 21.9468 39.435 20.6872 41.9196 20.034C47.7479 18.5211 54.8651 19.7074 58.4452 24.6394C60.6863 27.7319 60.987 31.8975 60.7364 35.5299H60.7579V35.5432Z" fill="black"/>
</svg>
